# xmcd
#
# Track frame offsets: 
#        182
#        16497
#        32522
#        53535
#        64197
#        82162
#        94525
#        111742
#        132870
#        146842
#        169160
#        187622
#
# Disc length: 2621 seconds
#
# Revision: 16
# Processed by: cddbd v1.5.2PL0 Copyright (c) Steve Scherf et al.
# Submitted via: ExactAudioCopyFreeDBPlugin 1.0
#
DISCID=9f0a3b0c
DTITLE=LeAnn Rimes - You Light Up My Life^ Inspirational Songs
DYEAR=1997
DGENRE=Country
TTITLE0=You Light up My Life
TTITLE1=Rose
TTITLE2=Bridge over Troubled Waters
TTITLE3=I Believe
TTITLE4=Ten Thousand Angels Cried
TTITLE5=Clinging to a Saving Hand
TTITLE6=On the Side of Angels
TTITLE7=I Know Who Holds Tomorrow
TTITLE8=God Bless America
TTITLE9=How Do I Live (Extended Mix)
TTITLE10=Amazing Grace
TTITLE11=National Anthem
EXTD=YEAR: 1997 ID3G:   2
EXTT0=
EXTT1=
EXTT2=
EXTT3=
EXTT4=
EXTT5=
EXTT6=
EXTT7=
EXTT8=
EXTT9=
EXTT10=
EXTT11=
PLAYORDER=
